<?xml version="1.0" standalone="no"?>
<!DOCTYPE svg PUBLIC "-//W3C//DTD SVG 20010904//EN"
 "http://www.w3.org/TR/2001/REC-SVG-20010904/DTD/svg10.dtd">
<svg version="1.0" xmlns="http://www.w3.org/2000/svg"
 width="600.000000pt" height="600.000000pt" viewBox="0 0 600.000000 600.000000"
 preserveAspectRatio="xMidYMid meet">
<g transform="translate(0.000000,600.000000) scale(0.100000,-0.100000)"
fill="#000000" stroke="none">
<path d="M1505 4851 c-4 -8 -27 -10 -66 -7 -36 3 -59 1 -59 -5 0 -6 -4 -8 -8
-5 -11 7 -63 -43 -93 -89 -33 -51 -75 -174 -89 -256 -16 -105 -12 -220 14
-328 3 -13 15 -30 26 -38 11 -8 17 -20 14 -26 -4 -7 -4 -9 1 -5 4 4 21 0 37
-8 16 -8 33 -12 39 -9 5 4 25 -2 43 -13 21 -12 39 -17 47 -11 9 5 21 2 33 -9
11 -9 16 -11 12 -4 -7 12 6 17 17 6 8 -8 -14 -54 -26 -54 -6 0 -7 -3 -4 -6 4
-4 -2 -19 -12 -33 -10 -14 -21 -33 -24 -41 -7 -16 -19 -35 -50 -82 -10 -16
-16 -28 -12 -28 7 0 -11 -23 -44 -56 -13 -13 -21 -27 -18 -30 3 -3 -4 -23 -17
-43 -27 -43 -57 -104 -60 -123 -1 -7 -6 -20 -11 -28 -6 -8 -11 -76 -11 -151
-1 -82 -6 -144 -13 -157 -6 -12 -9 -22 -6 -22 3 0 1 -9 -4 -19 -20 -37 41
-151 81 -151 11 0 16 -4 13 -10 -3 -5 2 -10 12 -10 10 0 29 -12 42 -26 13 -14
37 -28 53 -31 15 -3 28 -9 28 -14 0 -5 7 -6 15 -3 8 4 15 2 15 -3 0 -6 22 -10
49 -9 27 1 47 -2 45 -5 -2 -4 8 -10 24 -14 15 -4 32 -11 38 -16 26 -21 108
-58 117 -52 6 3 7 2 4 -4 -8 -13 102 -50 189 -63 47 -7 85 -8 114 -1 53 12 75
2 78 -35 1 -15 8 -31 15 -36 6 -4 8 -8 4 -8 -7 0 6 -31 34 -80 5 -8 17 -31 27
-50 15 -31 37 -59 85 -111 9 -10 14 -19 11 -19 -3 0 9 -12 28 -27 18 -16 42
-36 53 -45 11 -10 23 -17 28 -17 4 -1 17 -9 28 -20 22 -20 62 -35 57 -21 -2 4
-40 38 -86 75 -128 103 -197 203 -258 374 -14 40 -28 65 -36 63 -7 -2 -37 -8
-66 -13 -96 -18 -257 27 -415 115 -39 22 -77 36 -99 36 -19 0 -50 5 -69 11
-49 17 -198 109 -215 133 -18 26 -18 87 -1 129 11 24 12 50 6 102 -17 136 22
258 146 455 42 68 175 299 175 304 0 0 -35 2 -77 4 -53 2 -83 8 -95 19 -9 8
-24 13 -33 9 -25 -9 -61 13 -83 53 -67 121 -37 408 60 567 47 78 74 92 173 89
44 -1 83 -3 87 -4 13 -2 45 -74 52 -116 7 -43 -14 -204 -38 -290 -13 -49 -13
-47 -8 60 8 170 -24 306 -76 323 -10 3 -9 -4 4 -23 59 -90 0 -429 -101 -582
-34 -51 -34 -53 -14 -63 14 -8 29 -8 49 -2 22 8 30 7 34 -4 8 -21 59 -17 85 7
12 12 24 19 27 17 2 -2 -37 -85 -88 -184 -50 -98 -115 -226 -145 -284 -67
-132 -84 -199 -82 -315 2 -122 2 -115 -6 -157 -13 -65 -2 -82 91 -143 62 -41
98 -57 132 -61 26 -3 94 -27 152 -54 212 -98 324 -119 433 -83 32 11 59 17 61
14 2 -3 14 -37 26 -76 52 -159 146 -338 217 -411 17 -17 48 -44 69 -60 l39
-29 -18 28 c-10 15 -15 31 -13 36 8 12 -16 29 -35 26 -10 -2 -24 12 -37 39
-12 22 -24 40 -27 39 -3 -2 -6 0 -7 5 -1 4 -6 12 -12 18 -19 20 -39 52 -35 55
2 2 -5 18 -17 34 -25 37 -93 199 -101 240 -6 36 -39 85 -57 85 -8 0 -32 -7
-55 -15 -28 -10 -67 -13 -119 -10 -99 5 -124 11 -180 40 -26 13 -56 26 -67 27
-11 2 -42 18 -68 35 -26 18 -54 30 -62 27 -8 -4 -15 -1 -15 5 0 6 -19 11 -45
11 -48 0 -153 49 -137 64 4 4 2 7 -3 6 -21 -5 -36 0 -30 10 3 6 -3 10 -13 10
-34 0 -45 25 -37 83 4 28 6 66 5 82 -5 108 -4 153 3 148 4 -2 8 13 9 34 1 21
2 45 4 53 1 8 2 22 3 30 1 12 4 11 12 -3 8 -13 7 -27 -1 -47 -23 -56 -12 -255
15 -276 8 -6 13 -13 10 -15 -2 -3 8 -18 22 -34 18 -21 24 -24 19 -10 -5 11
-19 48 -32 83 -42 109 -28 238 40 372 18 36 73 144 123 240 49 96 100 208 112
247 21 65 25 71 42 62 17 -9 18 -7 9 16 -18 47 -12 94 15 120 13 14 31 25 40
25 25 0 73 -28 84 -49 14 -24 -23 -97 -58 -116 -35 -19 -8 -19 29 0 17 9 39
33 50 56 30 58 71 80 146 78 34 -1 67 2 75 6 7 5 28 8 46 7 18 -2 33 0 33 3 0
4 -16 22 -36 41 -33 31 -36 38 -31 74 4 32 2 39 -7 31 -10 -8 -15 -2 -23 24
-6 19 -7 37 -3 40 17 11 61 -16 70 -42 23 -65 34 -76 100 -97 55 -18 65 -25
68 -46 5 -53 -13 -54 -63 -3 -26 26 -44 40 -41 30 12 -39 -55 -142 -113 -171
-14 -8 -60 -16 -101 -19 -41 -4 -79 -7 -85 -8 -17 -2 38 -17 75 -20 19 -1 1
-5 -40 -8 l-75 -6 -18 -60 c-10 -33 -32 -101 -48 -152 -27 -85 -29 -102 -29
-250 0 -170 -12 -241 -53 -322 -25 -49 -86 -98 -135 -107 -31 -6 -33 -5 -53
42 -19 43 -21 60 -16 154 6 99 62 361 89 415 16 30 -7 7 -40 -42 -15 -22 -45
-66 -66 -97 -39 -56 -45 -83 -11 -49 17 16 17 16 11 -5 -4 -13 -3 -22 3 -22 5
0 12 14 15 30 3 17 9 44 12 60 3 17 14 35 24 40 16 9 14 -3 -15 -88 -18 -53
-49 -139 -69 -190 -42 -108 -64 -243 -47 -284 6 -16 14 -28 19 -28 9 0 9 67 0
75 -5 6 10 123 19 145 3 8 5 19 4 23 -1 5 3 5 10 2 6 -4 8 -18 4 -32 -4 -18
-2 -23 6 -17 8 4 9 3 5 -4 -9 -15 21 -117 39 -132 8 -7 13 -16 10 -20 -2 -3
14 -7 36 -8 27 -1 38 2 33 9 -4 7 -1 10 7 7 8 -3 20 2 27 11 8 9 11 10 7 4 -3
-7 -4 -13 -1 -13 8 0 76 72 93 97 8 13 19 20 24 17 5 -3 9 -1 9 5 0 5 -6 12
-12 14 -10 4 -10 6 0 6 7 1 10 6 7 11 -4 6 -2 17 4 24 6 7 12 22 14 34 2 12 6
24 9 28 4 3 7 90 8 192 0 111 5 191 11 198 5 7 12 25 13 41 2 15 4 32 5 36 0
5 4 6 9 4 4 -3 7 7 8 23 1 32 35 150 43 151 3 0 30 2 59 4 29 1 61 9 70 17 9
8 37 21 62 29 l45 15 -1 -51 c-2 -125 50 -206 146 -226 30 -7 71 -13 90 -13
19 -1 41 -5 48 -9 6 -5 12 -4 12 1 0 5 11 7 24 5 19 -4 32 3 56 31 18 20 37
33 44 29 6 -3 8 -3 4 1 -7 8 -5 11 37 59 14 15 25 33 25 39 0 6 12 36 26 65
14 30 23 57 20 60 -3 3 2 22 10 42 11 25 16 73 17 156 2 104 -1 125 -17 150
-23 35 -56 64 -73 65 -6 0 -25 12 -42 26 -23 19 -40 25 -61 22 -16 -2 -26 0
-23 4 3 5 -1 8 -8 6 -8 -1 -29 4 -47 11 -27 11 -41 12 -73 2 -53 -16 -83 -43
-127 -114 -31 -51 -37 -56 -43 -38 -9 22 -62 54 -94 56 -11 1 -33 7 -49 14
-35 14 -199 22 -238 10 l-28 -8 0 74 c0 41 -4 84 -9 97 -5 13 -8 26 -7 29 0 3
-14 18 -32 34 -25 21 -40 26 -67 23 -31 -4 -39 1 -37 22 0 3 -11 6 -26 5 -15
0 -30 3 -33 8 -4 5 -10 4 -14 -2z m155 -71 c65 -35 50 -332 -24 -490 -28 -58
-28 -50 -1 40 37 126 29 341 -15 417 -24 42 -6 57 40 33z m726 -174 c11 -8 40
-16 64 -18 38 -3 47 -8 64 -38 41 -69 15 -343 -40 -427 -8 -13 -13 -23 -11
-23 2 0 17 10 33 23 20 14 28 29 26 42 -3 16 -1 18 9 8 10 -10 10 -18 1 -38
-7 -15 -10 -31 -7 -36 4 -5 1 -9 -4 -9 -6 0 -10 -3 -9 -7 1 -5 -8 -31 -21 -60
-28 -60 -63 -81 -97 -56 -11 8 -29 11 -43 8 -24 -6 -24 -6 -8 17 31 43 78 133
80 151 1 9 5 17 9 17 4 0 8 12 8 26 0 14 4 23 8 20 5 -3 7 -23 5 -46 -4 -54
11 -44 27 17 25 101 10 315 -26 371 -18 28 -39 31 -25 3 19 -34 24 -154 11
-231 -17 -105 -65 -231 -116 -307 -47 -70 -44 -80 21 -70 19 3 35 2 35 -4 0
-5 15 -9 34 -9 65 0 127 98 156 248 17 83 8 273 -14 326 -19 47 -15 54 18 32
44 -28 51 -53 50 -176 -1 -183 -56 -336 -150 -419 l-47 -41 -69 4 c-38 3 -75
9 -82 15 -6 5 -26 9 -44 9 -42 -1 -76 31 -96 90 -20 57 -21 160 -2 181 7 9 25
38 40 66 14 27 26 44 26 36 0 -8 3 -11 6 -8 4 3 15 -4 25 -17 11 -14 25 -23
32 -22 20 3 38 17 32 26 -3 5 -1 11 4 14 11 7 5 49 -10 78 -6 11 -13 17 -16
14 -3 -3 -15 0 -27 6 -11 7 -24 12 -28 13 -4 0 -12 5 -19 12 -9 9 -5 18 14 37
14 14 23 26 19 26 -4 1 4 10 17 20 13 11 19 20 15 20 -5 0 3 6 17 14 30 15 64
14 82 -3 16 -15 20 -225 6 -300 -6 -30 -19 -71 -29 -90 -10 -20 -18 -38 -17
-41 2 -15 -50 -89 -59 -86 -6 3 -16 0 -22 -6 -29 -29 -72 38 -72 111 0 22 -5
43 -10 46 -6 4 -8 10 -5 15 3 5 1 11 -5 15 -14 8 -13 -60 1 -126 19 -89 76
-123 133 -78 31 24 88 141 107 219 8 30 14 109 14 175 0 96 -4 126 -18 152
-42 79 -140 40 -193 -76 -11 -22 -22 -41 -26 -41 -11 0 -10 7 8 43 67 130 149
186 210 143z m-439 -65 c23 0 48 -8 56 -16 19 -18 29 -90 19 -135 -7 -30 -12
-35 -41 -38 -32 -3 -33 -3 -31 35 4 73 0 109 -12 126 -11 14 -12 3 -10 -66 4
-91 -2 -102 -45 -86 -21 8 -23 15 -23 78 0 38 -4 72 -9 75 -5 4 -7 -19 -4 -53
6 -64 -3 -79 -37 -61 -12 6 -20 21 -20 36 0 37 -16 61 -45 68 -28 7 -25 23 8
35 19 7 52 8 194 2z m-317 -95 c-4 -19 -6 -37 -3 -40 3 -2 0 -14 -6 -25 -6
-11 -13 -52 -16 -90 -4 -63 -2 -69 13 -64 9 4 20 11 23 16 3 5 6 -5 5 -22 -1
-17 -4 -31 -8 -31 -3 0 -12 -17 -18 -37 -14 -44 -26 -60 -28 -38 -1 8 -3 21
-4 29 -1 7 -8 12 -17 11 -9 -2 -22 -4 -29 -4 -7 -1 -11 -5 -7 -10 6 -10 -37
-6 -65 6 -8 3 -22 5 -31 4 -22 -2 -32 26 -13 33 9 3 12 10 9 16 -3 5 -2 10 4
10 5 0 17 21 27 48 10 26 22 52 27 59 5 7 5 18 1 25 -4 7 -3 10 2 5 5 -5 13
12 19 39 5 26 15 49 22 51 9 3 10 -4 2 -29 -11 -40 -11 -40 0 -34 5 3 12 -1
15 -10 11 -28 43 10 56 67 7 27 16 49 20 49 4 0 4 -16 0 -34z m120 24 c4 0 10
-17 14 -37 7 -43 46 -79 74 -68 9 3 13 3 9 -1 -4 -4 1 -13 12 -20 17 -13 24
-54 9 -54 -5 0 -11 0 -15 0 -5 0 -21 11 -37 25 -23 19 -40 25 -78 25 l-50 0 7
31 c7 32 15 74 17 97 1 7 8 10 15 7 8 -3 18 -5 23 -5z m305 -109 c-3 -5 -1
-12 5 -16 13 -8 -8 -31 -32 -32 -17 -2 -17 0 2 28 19 26 39 42 25 20z m-105
-31 c0 -5 -7 -10 -16 -10 -8 0 -12 5 -9 10 3 6 10 10 16 10 5 0 9 -4 9 -10z
m-44 -15 c-1 -8 -6 -18 -11 -22 -4 -4 -5 -2 -1 5 4 7 2 12 -6 12 -9 0 -9 3 2
10 19 12 19 13 16 -5z m638 -121 c3 -8 2 -12 -4 -9 -6 3 -10 10 -10 16 0 14 7
11 14 -7z m-956 -129 c0 -16 -8 -29 -22 -36 -19 -9 -20 -9 -3 4 10 8 17 19 16
23 -2 14 1 34 5 34 2 0 4 -11 4 -25z m-28 -76 c-7 -11 -14 -18 -17 -15 -8 8 5
36 17 36 7 0 7 -6 0 -21z m-25 -48 c-3 -6 -11 -11 -17 -11 -6 0 -6 6 2 15 14
17 26 13 15 -4z m-36 -77 c-15 -18 -35 -51 -45 -74 -16 -38 -40 -85 -45 -90
-3 -3 -14 -23 -24 -46 -9 -22 -23 -41 -31 -41 -9 0 -5 16 13 51 14 28 30 53
34 54 5 2 6 8 3 14 -4 6 -3 13 2 17 13 9 54 69 54 79 0 4 6 14 13 21 6 6 13
16 13 22 1 5 2 14 3 21 1 9 4 9 13 0 8 -8 8 -15 -3 -28z m-156 -297 c-4 -20
-8 -25 -14 -16 -4 7 -3 21 3 32 13 25 17 18 11 -16z m1091 -1195 c3 -5 -1 -9
-9 -9 -8 0 -12 4 -9 9 3 4 7 8 9 8 2 0 6 -4 9 -8z"/>
<path d="M3321 4847 c-5 -5 -38 -11 -73 -12 -67 -3 -162 -20 -181 -32 -17 -10
-37 -15 -74 -17 -17 0 -29 -4 -27 -7 2 -4 -13 -9 -34 -13 -23 -3 -52 -19 -73
-38 -40 -36 -98 -120 -102 -146 -1 -9 -6 -23 -11 -30 -19 -30 -29 -207 -16
-267 5 -22 11 -55 15 -73 3 -18 19 -69 36 -115 30 -82 39 -166 26 -259 -6 -49
-9 -52 -87 -103 -38 -25 -72 -49 -75 -55 -4 -6 -11 -8 -16 -5 -5 4 -9 2 -9 -3
0 -9 -38 -8 -105 3 -88 14 -124 16 -165 5 -25 -6 -52 -12 -60 -14 -8 -1 -24
-7 -35 -13 -11 -6 -33 -13 -49 -17 -47 -11 -121 -67 -108 -81 4 -4 -2 -3 -13
2 -11 6 -56 9 -100 8 -94 -4 -105 -6 -105 -16 0 -5 -6 -6 -12 -4 -30 11 -91
-67 -102 -130 -4 -22 -11 -44 -14 -50 -3 -5 -7 -16 -8 -25 -1 -8 -5 -23 -9
-32 -4 -11 -3 -18 5 -18 6 0 8 -5 5 -11 -4 -6 2 -13 14 -16 12 -3 21 -9 21
-14 0 -5 7 -5 17 -2 10 4 14 2 10 -4 -8 -13 55 -32 108 -33 22 0 47 -1 55 -1
20 0 77 9 104 17 20 6 50 18 123 50 59 25 114 64 125 90 11 23 9 28 -12 46
-14 11 -19 16 -11 12 9 -5 8 2 -5 19 -10 15 -25 27 -31 27 -7 0 -22 9 -33 20
-11 11 -26 20 -33 20 -8 0 -14 7 -14 15 0 9 6 14 13 11 6 -2 22 3 35 11 12 9
19 12 16 6 -5 -7 0 -9 13 -6 11 3 18 9 15 13 -2 4 17 8 43 9 115 6 172 5 172
-1 0 -5 16 -8 36 -8 21 0 33 -4 29 -10 -3 -5 3 -10 15 -10 11 0 28 -4 38 -9 9
-5 33 -16 52 -25 19 -8 34 -19 32 -23 -1 -4 51 -11 115 -14 133 -7 161 -12
252 -41 120 -39 192 -94 231 -179 14 -30 27 -46 33 -40 12 12 -21 86 -58 129
-30 36 -101 85 -122 85 -7 0 -13 4 -13 8 0 6 -78 33 -125 43 -5 2 -28 7 -50
13 -22 6 -74 10 -117 9 -42 0 -74 2 -71 6 2 5 -1 8 -7 8 -6 0 -9 4 -6 9 4 5
-12 24 -34 41 l-41 32 35 24 c19 13 37 24 40 24 10 0 101 64 113 80 7 8 13 23
13 33 0 9 4 17 10 17 5 0 7 7 4 15 -4 8 -3 23 1 33 5 9 9 53 11 97 3 82 -8
129 -55 237 -28 67 -36 119 -35 233 2 119 3 128 33 182 19 33 32 43 65 51 44
11 71 10 99 -2 21 -10 95 -2 109 12 5 5 -3 7 -22 4 -16 -2 -61 3 -98 13 -64
15 -72 15 -107 1 -62 -26 -97 -88 -115 -202 -14 -87 2 -173 62 -337 38 -108
40 -115 34 -202 -9 -150 -12 -156 -127 -231 -55 -35 -104 -64 -109 -64 -17 0
-11 -18 8 -24 10 -3 38 -27 62 -52 l45 -46 -65 35 c-159 87 -291 101 -465 52
-88 -25 -130 -27 -95 -5 41 26 163 70 220 79 64 11 170 2 222 -18 22 -8 40 0
139 64 130 84 127 80 128 235 1 72 -4 99 -33 180 -44 123 -60 218 -54 316 9
144 82 275 172 309 53 21 112 17 216 -13 41 -12 88 -24 104 -27 15 -3 26 -8
23 -11 -3 -3 -52 0 -109 7 -167 19 -225 21 -247 9 -31 -16 -26 -27 14 -28 20
-1 52 -6 73 -11 53 -15 262 -7 272 9 13 21 1 37 -38 53 l-37 15 48 7 c35 5 60
3 88 -8 26 -10 37 -11 32 -4 -3 7 3 3 15 -7 12 -11 22 -16 22 -13 0 4 10 -3
23 -15 12 -13 21 -26 20 -30 -2 -5 1 -8 6 -8 5 0 13 9 16 20 9 28 33 25 47 -5
6 -14 15 -25 20 -25 15 0 4 -25 -17 -37 -12 -7 -26 -8 -36 -2 -29 15 -83 23
-149 23 -81 -1 -141 -7 -135 -12 2 -3 -6 -13 -18 -23 -19 -15 -20 -21 -10 -38
7 -11 10 -28 7 -38 -4 -13 -3 -15 4 -5 7 11 11 7 16 -13 5 -21 2 -32 -13 -47
-19 -17 -25 -32 -18 -41 1 -2 -3 -10 -10 -18 -15 -18 -10 -143 6 -163 6 -7 9
-20 6 -27 -3 -8 6 -26 20 -41 14 -16 23 -28 19 -28 -20 0 58 -65 104 -87 l52
-25 40 26 c23 15 45 24 50 21 6 -3 10 -1 10 6 0 7 3 9 7 6 4 -4 -7 -22 -24
-40 -25 -26 -29 -36 -22 -54 4 -13 13 -23 19 -23 6 0 8 -5 4 -12 -4 -6 -3 -8
3 -5 6 4 16 0 23 -8 7 -8 22 -15 34 -15 26 0 69 37 61 51 -4 5 5 4 19 -2 14
-7 23 -15 21 -19 -2 -4 2 -28 10 -54 23 -76 26 -123 9 -130 -9 -3 -53 -6 -98
-6 -104 0 -110 -8 -103 -131 5 -97 7 -106 30 -139 15 -22 19 -23 32 -9 8 8 16
27 17 41 2 21 5 24 15 16 7 -6 13 -7 13 -3 0 4 7 2 15 -5 8 -6 20 -8 26 -4 8
4 9 3 5 -4 -4 -7 3 -14 19 -18 13 -3 22 -10 19 -15 -3 -5 0 -8 8 -7 7 2 12 -3
10 -10 -1 -8 2 -11 7 -8 5 3 14 -1 21 -9 7 -8 19 -15 26 -15 8 0 14 -4 14 -9
0 -5 10 -11 22 -13 14 -2 24 -11 26 -23 2 -11 10 -25 18 -31 13 -10 13 -12 -1
-18 -8 -3 -15 -1 -15 4 0 32 -250 57 -299 30 -12 -6 -21 -9 -22 -8 0 2 -3 19
-6 38 -2 19 -10 41 -16 48 -6 8 -10 32 -8 53 3 39 -15 109 -27 109 -13 0 -1
-164 14 -184 21 -30 17 -44 -15 -61 -27 -13 -31 -13 -53 4 l-23 19 23 32 c26
34 42 119 31 160 l-6 25 -11 -26 c-6 -15 -8 -36 -5 -47 2 -11 -3 -34 -11 -51
-9 -17 -14 -31 -11 -31 4 0 -1 -7 -10 -16 -9 -9 -14 -23 -11 -31 3 -8 1 -11
-4 -8 -16 10 -12 -4 12 -35 11 -16 25 -27 29 -24 4 2 11 -1 15 -7 4 -7 3 -9
-4 -5 -26 16 -21 -36 10 -101 18 -37 33 -72 34 -78 0 -5 2 -12 3 -15 5 -11 12
-47 16 -80 2 -19 5 -35 5 -35 1 0 4 -26 6 -59 3 -32 14 -77 25 -100 18 -40 74
-94 92 -88 4 1 7 -2 7 -8 0 -9 64 -31 135 -46 86 -18 254 -2 263 25 2 6 10 11
18 11 9 0 12 5 9 10 -3 6 0 10 7 10 16 0 59 60 87 124 22 47 22 50 6 121 -9
40 -22 79 -30 85 -8 7 -12 16 -9 22 3 5 12 4 20 -3 7 -6 11 -15 8 -20 -3 -5
-1 -9 4 -9 5 0 12 -8 16 -17 21 -63 138 -233 160 -233 13 0 65 -43 61 -50 -2
-4 2 -7 10 -7 8 0 11 5 8 11 -4 6 5 0 20 -14 15 -14 27 -31 27 -38 0 -8 9 -27
21 -44 12 -16 18 -32 15 -35 -3 -4 0 -13 8 -22 7 -9 17 -27 21 -41 7 -22 6
-23 -9 -11 -9 8 -14 16 -12 18 4 4 -87 151 -101 163 -4 3 -3 -1 1 -7 4 -7 3
-13 -3 -13 -5 0 -11 4 -13 8 -13 30 -138 95 -138 71 0 -6 -4 -8 -8 -5 -5 3 -9
0 -10 -7 0 -7 -8 -37 -17 -67 -23 -77 -28 -174 -14 -250 12 -71 75 -200 121
-250 15 -17 28 -35 28 -39 0 -13 84 -66 99 -62 7 1 23 12 35 23 11 12 15 17 7
13 -9 -5 -7 1 4 19 10 14 15 26 12 26 -3 0 1 17 9 37 19 45 29 213 16 252 -6
16 -6 34 -1 42 5 8 9 12 10 9 2 -13 8 -40 23 -104 16 -66 39 -111 78 -149 28
-28 63 -88 78 -132 7 -22 17 -49 23 -60 12 -21 13 -27 15 -63 1 -15 6 -21 14
-16 7 5 8 3 4 -5 -5 -7 0 -21 10 -33 54 -59 92 -41 88 42 -3 73 -72 270 -94
270 -4 0 -17 15 -29 33 -11 17 -30 44 -41 58 -19 22 -28 48 -45 124 -8 36 -75
176 -89 186 -5 4 -6 11 -2 17 6 11 -17 35 -27 27 -4 -3 -5 -2 -2 2 3 3 -5 17
-17 30 -18 19 -22 36 -23 110 -3 101 -6 115 -36 180 -12 26 -23 50 -23 53 -1
3 -12 20 -24 38 -13 18 -21 39 -18 47 3 10 0 12 -12 8 -9 -3 -14 -3 -10 2 9 9
-101 125 -119 125 -7 0 -13 4 -13 8 0 5 -24 19 -52 32 -44 19 -72 24 -163 26
-73 2 -114 -1 -124 -9 -12 -10 -13 -9 -3 9 10 19 8 24 -11 37 -12 8 -35 27
-51 43 -16 16 -26 22 -21 15 5 -8 -6 -5 -23 8 -18 12 -32 27 -32 32 0 6 -4 8
-9 5 -4 -3 -16 3 -26 14 -10 11 -23 20 -28 20 -6 0 -18 7 -28 16 -9 8 -26 17
-36 18 -10 2 -19 10 -21 19 -3 12 7 16 50 16 89 2 89 2 81 14 -5 9 -3 9 8 0
13 -10 19 -8 37 11 11 13 18 27 15 30 -4 3 -1 6 6 6 9 0 12 15 10 48 -3 49
-26 132 -37 132 -4 0 -7 28 -8 62 0 35 -3 72 -7 83 -3 11 -6 23 -6 26 -1 4
-10 9 -21 12 -18 5 -18 4 -2 -21 11 -17 16 -44 15 -88 -1 -45 4 -77 18 -109
14 -31 19 -62 17 -97 -4 -67 -23 -78 -134 -78 l-81 0 6 -37 c6 -35 12 -41 74
-73 37 -19 101 -60 142 -90 42 -30 82 -54 90 -54 8 1 12 -2 9 -7 -13 -21 -63
-7 -115 32 -60 45 -142 93 -176 103 -21 7 -22 4 -25 -51 l-3 -58 -12 53 c-7
29 -13 88 -13 130 l0 77 96 0 c83 0 97 3 110 19 19 27 18 55 -7 127 -16 45
-19 72 -14 106 8 54 -8 102 -33 97 -45 -9 -91 -11 -86 -3 3 5 11 9 18 9 8 0
20 10 28 22 10 15 26 22 52 24 21 1 42 6 47 11 16 16 21 64 8 79 -6 8 -9 14
-6 14 3 0 -5 12 -19 27 -13 14 -22 28 -19 31 3 3 0 11 -5 17 -7 8 -4 20 10 38
23 28 24 40 10 65 -5 9 -21 45 -34 80 -25 63 -25 64 -6 85 11 11 20 23 21 26
0 3 2 16 5 28 6 36 6 37 5 64 -2 45 -105 128 -150 120 -8 -1 -10 2 -5 10 5 9
1 11 -14 7 -12 -4 -25 -2 -28 3 -7 12 -100 9 -113 -4z m137 -32 c151 -45 193
-131 109 -222 l-20 -23 41 -90 c23 -50 42 -93 42 -95 0 -3 -11 -5 -25 -5 -37
0 -33 -34 14 -110 31 -52 36 -68 28 -82 -9 -13 -20 -16 -52 -12 -22 3 -53 1
-70 -5 l-30 -9 33 -7 c44 -10 29 -23 -43 -36 -35 -6 -74 -21 -93 -36 -34 -25
-34 -25 -73 -7 -76 34 -136 127 -146 229 -7 68 0 97 36 138 l30 33 -29 53 -29
52 27 11 c15 6 59 13 98 15 67 5 120 -5 215 -42 12 -5 22 7 38 45 26 60 22 93
-15 133 -30 33 -42 35 -22 5 20 -32 27 -63 17 -79 -6 -10 -9 -6 -9 14 0 46
-50 85 -157 123 l-68 24 51 0 c28 0 74 -7 102 -15z m-126 -17 c46 -13 128 -82
128 -106 0 -12 -6 -8 -18 11 -9 15 -37 37 -61 49 -40 19 -54 21 -198 15 -85
-3 -153 -3 -150 -1 9 9 181 43 221 43 21 1 56 -4 78 -11z m202 -196 c3 -5 -1
-9 -9 -9 -8 0 -12 4 -9 9 3 4 7 8 9 8 2 0 6 -4 9 -8z m-34 -522 c0 -5 -2 -10
-4 -10 -3 0 -8 5 -11 10 -3 6 -1 10 4 10 6 0 11 -4 11 -10z m108 -26 c12 -4
22 -12 22 -20 0 -18 -42 -28 -87 -21 l-36 6 22 -23 c27 -29 14 -41 -35 -32
-40 8 -63 41 -42 61 26 26 109 41 156 29z m-1441 -560 c47 -24 88 -54 107 -77
37 -46 34 -49 -79 -105 -109 -54 -193 -75 -275 -69 -63 5 -160 39 -160 56 0 5
7 25 15 45 8 19 20 58 26 85 12 55 23 68 83 94 31 13 61 16 124 14 73 -3 91
-8 159 -43z m1929 -112 c84 -43 162 -129 219 -245 40 -81 47 -104 52 -174 3
-44 3 -97 -1 -117 l-7 -37 -49 28 c-74 43 -135 105 -168 169 -46 91 -149 229
-208 280 -30 25 -79 61 -110 79 -50 30 -54 35 -33 39 13 3 33 7 44 10 11 3 61
4 110 2 77 -3 99 -7 151 -34z m-389 -33 c168 -54 323 -226 323 -358 0 -109
-80 -209 -185 -231 -113 -24 -276 15 -352 84 -44 40 -45 42 -54 126 -17 157
-44 254 -91 322 -21 31 -23 29 62 56 109 35 187 35 297 1z m158 -47 c-3 -3
-11 0 -18 7 -9 10 -8 11 6 5 10 -3 15 -9 12 -12z m102 -87 c0 -8 -4 -12 -9 -9
-5 3 -6 10 -3 15 9 13 12 11 12 -6z m38 -54 c-6 -5 -25 10 -25 20 0 5 6 4 14
-3 8 -7 12 -15 11 -17z m211 -369 c122 -79 174 -173 182 -329 4 -81 1 -104
-22 -177 -14 -47 -31 -88 -37 -92 -17 -10 -122 104 -162 176 -54 98 -71 168
-64 269 5 89 25 191 37 191 4 0 34 -17 66 -38z m212 -37 c54 -81 74 -127 106
-239 21 -69 35 -98 65 -131 76 -83 126 -196 137 -314 l7 -66 -32 29 c-17 17
-31 36 -31 44 0 7 -12 48 -26 90 -27 79 -69 152 -121 213 -21 24 -35 59 -50
120 -12 47 -38 121 -58 165 -36 76 -59 154 -46 154 4 0 26 -29 49 -65z"/>
<path d="M3535 4491 c-3 -5 -2 -12 3 -15 5 -3 9 1 9 9 0 17 -3 19 -12 6z"/>
<path d="M3320 4399 c-24 -20 -28 -28 -15 -24 44 14 76 17 112 10 l38 -8 -49
-13 c-60 -16 -89 -40 -37 -30 29 5 39 2 62 -20 l28 -27 35 26 c52 40 66 57 66
78 0 11 -4 18 -9 15 -5 -3 -31 1 -57 9 -82 25 -134 20 -174 -16z m179 -15 c5
3 11 -1 15 -9 3 -8 2 -15 -2 -15 -5 0 -18 -9 -30 -21 -19 -17 -23 -18 -28 -4
-4 8 -1 21 5 28 8 10 7 17 -2 26 -10 11 -8 11 11 2 12 -7 26 -9 31 -7z"/>
<path d="M3290 4346 c0 -2 8 -10 18 -17 15 -13 16 -12 3 4 -13 16 -21 21 -21
13z"/>
<path d="M3383 4145 c0 -8 4 -12 9 -9 5 3 6 10 3 15 -9 13 -12 11 -12 -6z"/>
<path d="M3316 4117 c3 -10 9 -15 12 -12 3 3 0 11 -7 18 -10 9 -11 8 -5 -6z"/>
<path d="M3350 4116 c0 -2 7 -7 16 -10 8 -3 12 -2 9 4 -6 10 -25 14 -25 6z"/>
<path d="M1860 3476 c0 -2 8 -10 18 -17 15 -13 16 -12 3 4 -13 16 -21 21 -21
13z"/>
<path d="M2090 3466 c0 -2 7 -7 16 -10 8 -3 12 -2 9 4 -6 10 -25 14 -25 6z"/>
<path d="M1820 3335 c0 -5 5 -17 10 -25 5 -8 10 -10 10 -5 0 6 -5 17 -10 25
-5 8 -10 11 -10 5z"/>
<path d="M4167 3221 c-4 -17 -3 -21 5 -13 5 5 8 16 6 23 -3 8 -7 3 -11 -10z"/>
<path d="M4123 3105 c0 -6 6 -12 12 -12 6 0 12 6 12 12 0 6 -6 12 -12 12 -6 0
-12 -6 -12 -12z"/>
<path d="M3582 2861 c-11 -7 -11 -9 0 -14 9 -3 15 1 15 9 0 8 -1 14 -1 14 -1
0 -7 -4 -14 -9z"/>
<path d="M3560 2836 c0 -2 7 -7 16 -10 8 -3 12 -2 9 4 -6 10 -25 14 -25 6z"/>
<path d="M4180 2766 c0 -2 7 -7 16 -10 8 -3 12 -2 9 4 -6 10 -25 14 -25 6z"/>
<path d="M4163 2745 c0 -7 6 -11 14 -8 7 3 13 6 13 8 0 2 -6 5 -13 8 -8 3 -14
-1 -14 -8z"/>
<path d="M4210 2386 c0 -2 8 -10 18 -17 15 -13 16 -12 3 4 -13 16 -21 21 -21
13z"/>
<path d="M4255 2311 c-3 -5 -2 -12 3 -15 5 -3 9 1 9 9 0 17 -3 19 -12 6z"/>
<path d="M4287 2313 c-10 -10 -8 -23 4 -23 5 0 7 5 4 10 -3 6 -2 10 4 10 5 0
15 -8 20 -17 6 -10 11 -13 11 -7 0 11 -20 34 -30 34 -4 0 -10 -3 -13 -7z"/>
<path d="M1346 4738 c-90 -94 -140 -327 -105 -489 12 -55 46 -99 75 -99 30 0
88 73 116 146 53 138 64 372 22 445 -30 50 -57 50 -108 -3z m84 -10 c7 -13 15
-43 16 -68 11 -179 -7 -290 -61 -397 -34 -68 -61 -93 -85 -78 -24 15 -57 207
-40 235 7 11 12 11 23 2 8 -7 21 -10 28 -7 18 7 79 97 79 117 0 22 -31 47 -69
54 -18 4 -29 10 -24 13 8 6 15 27 16 49 0 6 3 10 5 7 7 -7 32 15 32 29 0 6 -5
4 -10 -4 -6 -9 -10 -10 -10 -3 0 11 68 73 80 73 3 0 12 -10 20 -22z m-90 -207
c0 -39 -37 -86 -56 -70 -19 16 -18 78 2 100 23 26 54 8 54 -30z m29 -6 l0 -20
-9 20 c-5 11 -9 27 -9 35 -1 13 0 13 9 0 5 -8 9 -24 9 -35z"/>
<path d="M2917 4355 l-37 -26 1 -71 c1 -40 6 -76 11 -82 39 -47 56 -80 49 -95
-5 -9 -11 -63 -15 -121 -6 -100 -10 -142 -16 -147 -1 -2 -4 -15 -5 -30 -1 -16
-6 -49 -10 -74 -5 -31 -3 -54 5 -69 l12 -23 22 24 c22 25 63 118 69 157 2 12
9 28 17 35 8 7 11 8 7 1 -4 -7 0 -14 8 -18 8 -3 15 -10 15 -16 0 -6 11 -26 24
-43 22 -29 38 -72 50 -137 2 -14 12 -43 22 -65 10 -22 19 -45 20 -52 3 -15 57
-83 66 -83 34 0 29 157 -8 245 -11 27 -10 33 11 61 34 45 15 112 -38 134 -12
5 -35 20 -51 34 -25 21 -29 32 -31 78 -1 29 2 63 7 76 15 44 17 156 2 190 -15
38 -49 84 -56 77 -3 -3 -10 6 -18 19 -7 13 -22 26 -34 29 -11 3 -30 8 -41 12
-13 4 -33 -3 -58 -20z m137 -61 c52 -50 62 -98 45 -209 -24 -161 -15 -196 63
-236 21 -11 45 -30 54 -44 15 -23 15 -27 -10 -69 l-26 -44 19 -44 c17 -38 44
-197 35 -207 -8 -9 -77 158 -94 226 -13 51 -32 92 -65 140 -35 50 -50 81 -55
118 l-6 50 -8 -50 c-10 -58 -74 -266 -87 -279 -12 -13 -12 -8 5 77 24 120 36
212 36 282 l0 65 24 -15 c13 -9 40 -17 60 -19 35 -2 36 -1 36 33 0 27 -3 32
-12 23 -24 -24 -60 -13 -99 29 -51 56 -75 119 -63 167 17 70 79 73 148 6z"/>
<path d="M2929 4289 c-7 -13 -8 -35 -3 -58 l8 -36 5 40 c5 32 11 41 29 43 24
4 45 -29 24 -36 -7 -2 -12 -14 -12 -26 0 -16 11 -27 36 -40 35 -16 36 -16 29
1 -4 10 -11 38 -15 62 -4 24 -16 50 -26 58 -27 20 -62 16 -75 -8z"/>
<path d="M3095 3841 c-3 -5 -2 -12 3 -15 5 -3 9 1 9 9 0 17 -3 19 -12 6z"/>
<path d="M1733 4275 c0 -8 4 -12 9 -9 5 3 6 10 3 15 -9 13 -12 11 -12 -6z"/>
<path d="M2036 4248 c3 -5 10 -6 15 -3 13 9 11 12 -6 12 -8 0 -12 -4 -9 -9z"/>
<path d="M1761 4227 c-8 -10 -7 -14 2 -14 8 0 14 6 14 14 0 7 -1 13 -2 13 -2
0 -8 -6 -14 -13z"/>
<path d="M1896 4232 c-3 -5 1 -9 9 -9 8 0 12 4 9 9 -3 4 -7 8 -9 8 -2 0 -6 -4
-9 -8z"/>
<path d="M1656 4093 c-6 -14 -5 -15 5 -6 7 7 10 15 7 18 -3 3 -9 -2 -12 -12z"/>
<path d="M1770 4106 c0 -2 7 -7 16 -10 8 -3 12 -2 9 4 -6 10 -25 14 -25 6z"/>
<path d="M2670 3456 c0 -8 4 -17 9 -21 13 -8 99 -23 173 -31 35 -4 83 -15 108
-24 25 -10 57 -20 70 -22 14 -1 31 -9 38 -16 8 -7 18 -10 23 -7 5 4 9 2 9 -4
0 -6 6 -8 14 -5 8 3 17 0 22 -7 5 -8 3 -10 -6 -4 -9 5 -11 4 -6 -3 4 -7 16
-12 26 -12 10 0 25 -7 34 -15 8 -8 18 -15 23 -15 4 0 23 -18 42 -40 19 -22 38
-40 42 -40 37 0 -65 109 -138 147 -121 64 -308 113 -431 113 -26 0 -41 4 -37
10 3 6 1 10 -4 10 -6 0 -11 -6 -11 -14z"/>
<path d="M1636 3333 c-6 -14 -5 -15 5 -6 7 7 10 15 7 18 -3 3 -9 -2 -12 -12z"/>
<path d="M2456 3253 c82 -196 335 -388 576 -437 122 -25 259 -16 289 20 11 13
9 14 -12 9 -67 -16 -121 -20 -194 -14 -113 10 -134 14 -199 43 -32 14 -63 26
-68 26 -13 0 -114 66 -139 91 -11 11 -28 22 -38 23 -9 2 -16 7 -16 12 0 5 -13
20 -30 34 -16 14 -32 29 -34 35 -2 5 -17 22 -32 37 -15 15 -23 30 -18 34 5 3
9 11 9 17 0 8 -3 7 -9 -2 -7 -11 -19 1 -47 47 -44 69 -61 81 -38 25z"/>
<path d="M2419 3273 c-4 -29 -3 -39 4 -49 4 -7 7 -16 5 -20 -3 -12 19 -78 43
-131 10 -24 19 -47 19 -53 0 -5 5 -10 11 -10 5 0 8 -4 5 -9 -4 -5 -3 -11 2
-13 12 -5 72 -85 72 -97 0 -6 3 -11 8 -11 4 -1 21 -12 37 -26 17 -15 24 -23
16 -19 -9 6 -12 4 -7 -4 4 -6 12 -9 17 -6 5 4 12 -1 15 -9 3 -9 10 -13 15 -10
5 3 9 1 9 -4 0 -5 14 -15 30 -22 17 -7 30 -17 30 -22 0 -5 5 -6 10 -3 6 3 10
1 10 -5 0 -6 4 -9 10 -5 5 3 17 1 27 -4 78 -41 99 -45 218 -45 66 1 131 6 145
11 14 6 28 10 32 9 4 0 14 8 22 19 8 11 17 17 21 13 8 -7 18 0 73 50 39 36 35
43 -9 11 -16 -11 -59 -34 -96 -52 -65 -31 -73 -32 -193 -32 -119 0 -129 2
-203 34 -132 56 -223 139 -299 271 -28 49 -78 189 -78 220 0 18 -19 39 -21 23z"/>
<path d="M2318 3243 c-2 -5 -18 -21 -37 -38 -19 -16 -30 -23 -26 -15 7 12 6
13 -6 4 -24 -19 -121 -45 -174 -46 -94 -3 -170 2 -157 11 9 6 5 8 -15 9 -15 0
-43 1 -62 2 -18 1 -38 -3 -43 -8 -14 -14 73 -82 105 -82 14 0 27 -4 29 -10 4
-12 72 -22 178 -25 73 -2 91 1 128 21 23 12 40 19 37 14 -3 -6 9 0 28 13 37
24 83 107 65 118 -7 4 -5 9 3 12 12 4 11 7 -1 16 -17 12 -47 14 -52 4z m22
-67 c-14 -43 -33 -60 -100 -86 -109 -43 -274 -23 -405 49 -37 20 -38 21 -10
16 159 -33 185 -36 254 -30 100 8 193 40 233 80 37 36 46 26 28 -29z"/>
<path d="M2616 2952 c-3 -5 1 -9 9 -9 8 0 12 4 9 9 -3 4 -7 8 -9 8 -2 0 -6 -4
-9 -8z"/>
<path d="M2239 2889 c-11 -21 -8 -106 6 -179 2 -14 7 -40 10 -58 2 -19 14 -46
25 -62 11 -15 20 -33 20 -39 0 -6 5 -11 11 -11 5 0 8 -4 5 -9 -3 -4 4 -17 15
-27 11 -10 17 -24 15 -31 -3 -7 -1 -12 3 -10 5 1 19 -9 33 -23 13 -14 41 -38
61 -54 20 -15 37 -32 37 -38 0 -5 13 -37 28 -71 22 -47 29 -79 30 -132 2 -87
14 -112 54 -113 50 -1 58 16 58 118 0 79 -3 96 -22 123 -12 17 -16 27 -7 22 7
-4 4 3 -7 16 -12 13 -25 35 -29 49 -9 29 -35 69 -35 55 0 -6 -8 5 -16 22 -9
18 -19 31 -23 29 -3 -2 -15 8 -26 21 -11 14 -30 36 -42 50 -32 36 -97 168
-123 248 -40 123 -58 147 -81 104z m35 -38 c20 -129 120 -317 217 -412 33 -33
65 -79 95 -138 40 -82 44 -96 44 -165 l0 -76 -30 0 -30 0 0 73 c0 112 -40 199
-141 304 -114 119 -155 214 -174 401 -7 70 8 80 19 13z"/>
<path d="M2803 2825 c0 -7 6 -11 14 -8 7 3 13 6 13 8 0 2 -6 5 -13 8 -8 3 -14
-1 -14 -8z"/>
<path d="M3048 2763 c7 -3 16 -2 19 1 4 3 -2 6 -13 5 -11 0 -14 -3 -6 -6z"/>
<path d="M3305 2660 c-81 -24 -276 -70 -297 -70 -10 0 -18 -5 -18 -10 0 -12
41 -6 125 16 28 8 92 23 144 35 52 11 101 27 108 35 18 17 12 17 -62 -6z"/>
<path d="M3455 2672 c6 -6 48 -22 95 -35 133 -39 194 -59 205 -68 15 -14 28
-10 13 4 -7 7 -60 28 -118 45 -58 18 -118 37 -135 43 -56 20 -71 22 -60 11z"/>
<path d="M3963 2668 c-11 -14 -48 -110 -46 -118 1 -3 -4 -11 -10 -19 -6 -7
-12 -20 -13 -28 -3 -17 -27 -73 -56 -127 -19 -36 -20 -50 -15 -161 9 -165 33
-216 76 -156 30 41 39 84 41 186 0 59 2 67 13 50 6 -11 12 -22 12 -25 0 -3 13
-31 29 -63 27 -56 71 -107 134 -154 37 -28 47 -28 72 -3 11 11 16 20 10 20 -5
0 -7 6 -5 13 3 6 -5 23 -16 37 -11 14 -18 18 -14 10 4 -8 -4 -4 -17 10 -14 14
-23 28 -21 33 2 4 0 7 -6 7 -14 0 -48 37 -78 84 -30 47 -70 92 -77 86 -2 -3
13 -34 34 -71 36 -60 143 -179 162 -179 4 0 8 -12 8 -26 l0 -26 -42 33 c-79
59 -127 128 -158 222 -10 32 -14 36 -26 26 -13 -11 -14 -9 -5 12 11 29 21 58
20 62 -1 1 6 19 15 40 20 49 32 188 18 212 -11 20 -14 6 -27 -118 -4 -32 -20
-97 -36 -144 -21 -63 -29 -106 -29 -157 0 -68 -26 -190 -39 -182 -4 3 -8 19
-9 38 -1 18 -7 77 -12 131 -9 90 -8 101 10 137 52 103 131 320 116 320 -2 0
-8 -6 -13 -12z"/>
<path d="M3432 2595 c-3 -117 9 -149 63 -175 24 -12 66 -23 92 -26 26 -3 53
-7 60 -9 6 -2 14 -1 18 3 3 3 -29 12 -71 19 -43 8 -92 22 -110 34 -34 21 -36
27 -47 189 -2 25 -4 9 -5 -35z"/>
<path d="M3380 2597 c0 -24 -7 -67 -15 -95 -20 -66 -44 -80 -182 -102 -98 -16
-154 17 -187 111 -10 27 -20 48 -22 46 -7 -6 24 -87 46 -123 17 -26 30 -34 68
-42 58 -11 117 -8 156 7 16 6 31 9 34 7 2 -3 21 3 42 14 30 15 41 29 54 68 19
59 27 140 15 148 -5 3 -9 -15 -9 -39z"/>
<path d="M3763 2501 c-12 -28 -20 -51 -17 -51 7 0 45 82 42 91 -2 6 -13 -12
-25 -40z"/>
<path d="M2846 2520 c9 -18 114 -160 132 -178 8 -9 12 -54 12 -149 0 -75 3
-134 6 -131 3 3 5 64 5 134 l-1 129 -45 65 c-44 64 -125 159 -109 130z"/>
<path d="M2836 2453 c12 -32 27 -59 32 -61 5 -1 -4 24 -19 58 -16 33 -31 60
-33 60 -2 0 7 -26 20 -57z"/>
<path d="M3705 2414 l-30 -26 33 16 c17 9 32 21 32 26 0 13 -1 13 -35 -16z"/>
<path d="M2870 2375 c0 -5 8 -24 19 -41 13 -21 20 -56 23 -115 3 -66 10 -95
29 -129 13 -24 30 -45 37 -46 7 -1 8 0 2 3 -27 13 -52 88 -57 177 -3 50 -9 93
-13 96 -4 3 -14 19 -23 35 -9 17 -16 26 -17 20z"/>
<path d="M3250 2369 c-64 -11 -151 -37 -165 -51 -6 -6 -5 -7 5 -4 54 17 195
46 229 46 l41 0 0 -109 c0 -102 -2 -111 -22 -125 -28 -20 -78 -20 -121 -2 -29
12 -44 26 -101 97 -7 9 -16 29 -21 45 -4 16 -10 23 -12 17 -8 -22 40 -104 81
-139 67 -57 143 -67 186 -24 18 18 20 34 20 130 0 109 0 111 -26 120 -14 6
-28 9 -32 9 -4 -1 -32 -5 -62 -10z"/>
<path d="M3448 2364 c-5 -4 -8 -56 -8 -116 0 -102 1 -110 25 -133 30 -31 76
-33 137 -6 59 25 107 97 110 166 l3 48 -55 19 c-59 20 -200 35 -212 22z m195
-32 l69 -17 -6 -38 c-9 -52 -63 -133 -101 -151 -47 -23 -110 -23 -135 -1 -18
16 -20 30 -20 128 l0 110 63 -7 c34 -4 93 -14 130 -24z"/>
<path d="M3977 1939 c-21 -5 -45 -15 -53 -23 -8 -8 -23 -13 -34 -11 -11 2 -18
1 -16 -4 3 -4 -6 -19 -18 -32 -26 -28 -79 -109 -72 -109 3 0 -1 -18 -9 -40 -8
-22 -14 -42 -15 -45 0 -3 0 -11 -1 -17 0 -7 -18 45 -39 115 -21 71 -46 137
-56 148 -15 16 -31 19 -111 19 -52 0 -102 -4 -112 -10 -21 -11 -54 -94 -67
-170 -6 -31 -47 -166 -60 -198 -8 -18 -14 -42 -14 -54 0 -17 -2 -18 -15 -8 -8
7 -15 19 -15 27 0 8 -5 11 -12 7 -7 -4 -8 -3 -4 5 4 6 2 20 -5 29 -7 9 -10 14
-5 10 18 -15 59 66 64 124 6 81 -3 118 -40 158 -66 72 -77 75 -241 75 -133 0
-150 -2 -162 -18 -13 -18 -14 -18 -25 2 -10 20 -18 21 -209 21 -163 0 -201 -3
-211 -15 -11 -13 -15 -13 -33 0 -34 24 -426 20 -413 -4 1 -3 -5 -14 -16 -23
-17 -17 -18 -17 -18 1 0 24 -19 31 -93 32 -48 1 -61 -2 -73 -19 l-14 -21 -25
25 -25 25 -167 -7 c-130 -6 -171 -11 -183 -22 -13 -13 -15 -53 -12 -266 4
-294 1 -286 106 -286 34 0 67 4 75 9 17 11 32 86 25 128 l-6 32 54 0 c29 0 60
1 68 3 43 9 56 122 19 159 -18 18 -29 20 -75 16 -45 -4 -56 -2 -64 13 -13 25
7 31 81 24 64 -6 113 1 104 15 -2 5 2 12 11 15 8 3 12 2 9 -4 -3 -6 -6 -89 -6
-186 1 -216 2 -218 96 -221 54 -2 69 1 85 17 11 11 20 28 20 38 1 9 1 95 2
189 l2 173 23 -15 c12 -8 40 -15 63 -15 l40 0 2 -167 c0 -93 2 -173 2 -179 5
-51 143 -59 190 -11 9 9 12 59 12 182 l-1 170 45 3 c24 2 52 9 60 17 14 12 17
12 28 -6 11 -17 21 -20 53 -16 22 2 41 1 44 -3 2 -4 5 -82 5 -174 2 -205 3
-206 100 -206 111 0 110 -1 110 206 l0 174 35 1 c47 2 52 3 61 12 4 4 10 7 13
7 3 0 6 -73 6 -163 0 -89 2 -172 4 -185 6 -36 43 -54 108 -53 73 0 94 19 96
88 2 40 4 47 14 37 7 -7 13 -17 13 -23 0 -16 40 -88 56 -101 9 -8 36 -10 81
-6 87 8 77 7 153 0 57 -5 68 -3 87 16 13 11 26 33 29 48 9 35 20 42 72 42 43
0 44 -2 45 -47 0 -12 3 -21 8 -20 4 1 14 -7 22 -17 21 -28 119 -35 163 -11 30
16 31 19 22 52 -5 19 -8 37 -5 39 8 8 37 -8 31 -17 -3 -5 0 -9 6 -9 6 0 8 -4
5 -10 -4 -6 1 -7 11 -3 11 4 15 2 11 -4 -4 -6 0 -14 9 -17 10 -4 13 -2 9 7 -4
6 3 1 14 -13 11 -14 21 -22 21 -17 0 4 16 0 36 -8 47 -19 160 -20 197 0 15 8
25 10 22 5 -12 -19 4 -10 31 18 15 15 21 18 13 8 -9 -13 -10 -17 -2 -12 7 4
22 -2 35 -14 19 -18 30 -20 83 -14 72 8 99 28 97 76 -1 18 1 41 4 52 6 17 8
16 30 -10 13 -16 23 -32 24 -36 0 -9 24 -39 59 -75 22 -23 29 -25 85 -18 33 3
65 7 70 8 6 1 20 13 33 26 17 17 20 27 13 40 -26 42 -100 142 -100 135 0 -16
-54 80 -55 98 -1 10 0 16 2 14 6 -6 123 222 123 238 0 33 -30 46 -105 46 -65
0 -76 -3 -104 -27 -17 -15 -31 -35 -31 -45 0 -9 -4 -20 -10 -23 -5 -3 -10 -15
-10 -26 0 -12 -5 -19 -12 -16 -7 2 -12 11 -12 20 1 9 -2 14 -7 11 -5 -3 -6 8
-4 23 8 44 -16 66 -79 71 -60 5 -110 -4 -102 -17 3 -5 -1 -14 -8 -21 -12 -9
-19 -7 -36 10 -12 12 -36 26 -53 31 -39 11 -129 10 -180 -2z m173 -29 c20 -5
44 -15 53 -22 16 -12 16 -16 1 -63 -24 -73 -28 -76 -74 -58 -55 22 -106 10
-147 -34 -28 -29 -33 -42 -33 -81 0 -105 86 -159 187 -117 20 9 40 12 44 8 3
-5 14 -32 24 -61 13 -41 14 -56 5 -67 -28 -34 -165 -46 -244 -23 -63 19 -140
100 -160 167 -20 68 -20 113 -1 179 20 65 92 142 155 165 52 18 139 21 190 7z
m560 4 c0 -3 -13 -28 -29 -57 -83 -153 -114 -220 -105 -232 5 -7 44 -62 87
-121 56 -77 74 -110 65 -115 -7 -4 -41 -10 -75 -14 -71 -8 -67 -11 -157 117
-29 40 -60 74 -70 76 -16 3 -17 -5 -15 -85 l2 -88 -77 -3 -76 -3 2 258 3 258
73 3 72 3 0 -106 c0 -78 3 -105 13 -105 7 0 32 39 56 88 69 141 59 132 151
132 44 0 80 -2 80 -6z m-2982 -53 c7 -90 5 -91 -108 -91 l-100 0 0 -45 0 -45
79 0 c44 0 82 -3 85 -8 2 -4 1 -32 -2 -62 l-7 -55 -74 -1 -74 -1 2 -80 c2 -76
1 -81 -21 -87 -29 -7 -86 -7 -115 0 l-23 6 0 243 c0 134 3 251 6 259 6 14 28
16 178 14 l171 -3 3 -44z m197 -211 l0 -255 -71 -3 -72 -3 -5 33 c-3 18 -4
131 -2 252 2 169 6 221 17 227 7 5 40 8 73 7 l60 -3 0 -255z m465 195 c0 -45
-4 -65 -12 -66 -7 0 -37 -2 -66 -2 l-53 -2 -2 -190 -2 -190 -40 -7 c-22 -4
-55 -4 -72 -1 l-33 5 0 194 0 194 -40 -6 c-21 -4 -51 -4 -65 0 -23 6 -25 11
-25 65 0 32 3 61 7 64 3 4 96 7 205 7 l198 0 0 -65z m440 0 l0 -65 -65 0 -65
0 0 -195 0 -195 -75 0 -75 0 0 196 0 195 -62 -2 -63 -3 -3 53 c-2 30 -1 60 2
67 4 11 45 14 206 14 l200 0 0 -65z m335 54 c119 -33 162 -204 74 -295 l-30
-31 43 -81 c43 -81 58 -98 58 -64 0 19 114 423 130 460 9 21 16 22 104 22 67
0 97 -4 105 -14 12 -15 141 -458 141 -486 0 -22 -20 -30 -68 -30 -68 0 -79 8
-92 61 l-12 50 -71 -3 -70 -3 -14 -47 c-8 -28 -20 -49 -31 -51 -9 -3 -78 -5
-152 -4 l-135 2 -38 78 c-30 62 -42 77 -60 77 -21 0 -22 -4 -22 -72 l0 -73
-74 0 -73 0 1 249 c1 136 4 252 7 257 8 13 231 11 279 -2z m1295 -103 c0 -3
-4 -8 -10 -11 -5 -3 -10 -1 -10 4 0 6 5 11 10 11 6 0 10 -2 10 -4z m-228 -145
c1 -72 -2 -134 -5 -138 -4 -3 -7 -1 -7 6 0 19 -43 56 -67 57 -12 0 -20 -3 -17
-7 13 -22 -94 -22 -119 0 -8 6 -18 7 -22 3 -5 -4 -5 -1 -1 6 4 6 3 12 -2 12
-16 0 -12 111 4 117 8 3 11 9 8 14 -3 5 1 10 8 11 7 0 18 2 23 3 25 6 32 7 61
7 17 1 40 -4 51 -10 17 -10 25 -7 47 13 14 13 26 30 26 36 0 7 3 10 6 7 3 -3
6 -65 6 -137z"/>
<path d="M3876 1478 c3 -4 9 -8 15 -8 5 0 9 4 9 8 0 5 -7 9 -15 9 -8 0 -12 -4
-9 -9z"/>
<path d="M4058 1463 c7 -3 16 -2 19 1 4 3 -2 6 -13 5 -11 0 -14 -3 -6 -6z"/>
<path d="M4530 1781 c0 -6 4 -13 10 -16 6 -3 7 1 4 9 -7 18 -14 21 -14 7z"/>
<path d="M4642 1437 c-8 -10 -6 -13 8 -14 11 -1 22 2 25 8 4 5 -2 6 -11 2 -12
-4 -15 -3 -10 5 10 16 1 15 -12 -1z"/>
<path d="M4590 1430 c0 -5 5 -10 11 -10 5 0 7 -5 3 -12 -4 -7 -3 -8 5 -4 9 6
9 11 0 22 -14 17 -19 18 -19 4z"/>
<path d="M1825 1869 c-4 -6 -5 -12 -2 -15 2 -3 7 2 10 11 7 17 1 20 -8 4z"/>
<path d="M1835 1420 c-3 -6 1 -7 9 -4 18 7 21 14 7 14 -6 0 -13 -4 -16 -10z"/>
<path d="M2337 1829 c7 -7 15 -10 18 -7 3 3 -2 9 -12 12 -14 6 -15 5 -6 -5z"/>
<path d="M2142 1660 c0 -14 2 -19 5 -12 2 6 2 18 0 25 -3 6 -5 1 -5 -13z"/>
<path d="M2142 1470 c0 -19 2 -27 5 -17 2 9 2 25 0 35 -3 9 -5 1 -5 -18z"/>
<path d="M2490 1830 c-9 -6 -10 -10 -3 -10 6 0 15 5 18 10 8 12 4 12 -15 0z"/>
<path d="M3486 1862 c-2 -4 4 -8 14 -8 10 0 16 4 14 8 -3 4 -9 8 -14 8 -5 0
-11 -4 -14 -8z"/>
<path d="M3560 1820 c6 -11 13 -20 16 -20 2 0 0 9 -6 20 -6 11 -13 20 -16 20
-2 0 0 -9 6 -20z"/>
<path d="M3020 1720 l0 -60 38 0 c51 0 75 19 75 60 0 41 -24 60 -75 60 l-38 0
0 -60z m78 3 c-2 -20 -9 -29 -25 -31 -20 -3 -23 1 -23 27 0 27 4 31 26 31 22
0 25 -4 22 -27z"/>
<path d="M3523 1700 l-21 -80 44 0 c24 0 44 2 44 5 0 15 -34 141 -39 147 -4 5
-16 -28 -28 -72z"/>
<path d="M3040 1621 c0 -6 4 -13 10 -16 6 -3 7 1 4 9 -7 18 -14 21 -14 7z"/>
<path d="M3090 1575 c-10 -12 -9 -16 4 -21 9 -3 13 -11 9 -18 -3 -6 -2 -7 2
-3 17 15 14 36 -3 29 -15 -5 -15 -4 -3 11 7 9 11 17 8 17 -2 0 -10 -7 -17 -15z"/>
<path d="M3180 1426 c0 -2 7 -7 16 -10 8 -3 12 -2 9 4 -6 10 -25 14 -25 6z"/>
<path d="M4493 1375 c0 -8 4 -12 9 -9 5 3 6 10 3 15 -9 13 -12 11 -12 -6z"/>
</g>
</svg>
